<svg xmlns="http://www.w3.org/2000/svg" width="512" height="512" viewBox="0 0 512 512">
  <path id="facebook" d="M75,512H242V330H182V270h60V195a75.084,75.084,0,0,1,75-75h75v60H332a30.033,30.033,0,0,0-30,30v60h87.293l-10,60H302V512H437a75.084,75.084,0,0,0,75-75V75A75.084,75.084,0,0,0,437,0H75A75.084,75.084,0,0,0,0,75V437A75.084,75.084,0,0,0,75,512ZM30,75A45.052,45.052,0,0,1,75,30H437a45.052,45.052,0,0,1,45,45V437a45.052,45.052,0,0,1-45,45H332V360h72.707l20-120H332V210h90V90H317A105.117,105.117,0,0,0,212,195v45H152V360h60V482H75a45.052,45.052,0,0,1-45-45Zm0,0" fill="#fff"/>
</svg>
