<svg id="twitter" xmlns="http://www.w3.org/2000/svg" width="496" height="496" viewBox="0 0 496 496">
  <g id="Group_2" data-name="Group 2">
    <g id="Group_1" data-name="Group 1">
      <path id="Path_1" data-name="Path 1" d="M365.008,0H130.992C57.536,0,0,57.536,0,130.992V365.008C0,438.464,57.536,496,130.992,496H365.008C438.464,496,496,438.464,496,365.008V130.992C496,57.536,438.448,0,365.008,0ZM464,365.008C464,420.528,420.512,464,365.008,464H130.992C75.488,464,32,420.512,32,365.008V130.992C32,75.488,75.488,32,130.992,32H365.008C420.528,32,464,75.488,464,130.992Z" fill="#fff"/>
      <path id="Path_2" data-name="Path 2" d="M403.984,126.64a16,16,0,0,0-17.5-.88c-5.472,3.216-17.6,4.8-27.328,6.08-2.016.272-4,.528-5.92.8a76.875,76.875,0,0,0-48.944-17.632c-40.4,0-73.552,31.264-75.9,70.592a155.768,155.768,0,0,1-93.968-53.984,15.995,15.995,0,0,0-26.992,3.76c-1.024,2.336-9.952,24.3-9.952,78.64,0,47.056,37.136,81.632,62.608,99.824a109.352,109.352,0,0,1-56.576,8.72A16.006,16.006,0,0,0,93.168,352a188.178,188.178,0,0,0,100.56,29.008c114.688,0,184.1-90.1,186.672-178.928,3.3-4.784,9.584-14.1,20.208-30.432,4.256-6.576,7.824-20.752,9.568-28.608A15.989,15.989,0,0,0,403.984,126.64Zm-52.448,60.9a16.037,16.037,0,0,0-3.04,9.376c0,63.152-48.016,152.1-154.752,152.1a157.735,157.735,0,0,1-28.592-2.608,137.255,137.255,0,0,0,35.2-19.712,16,16,0,0,0-2.544-26.944c-.688-.352-68.32-35.92-68.32-85.712a340.294,340.294,0,0,1,2.08-39.792,188.391,188.391,0,0,0,113.44,45.3c.32.016.656.032.96.016,9.312-.272,16.16-7.1,16.16-16a15.846,15.846,0,0,0-1.264-6.224,43.976,43.976,0,0,1-.608-7.232c0-23.76,19.744-43.088,44.032-43.088a44.584,44.584,0,0,1,32.192,13.68A16.05,16.05,0,0,0,351.1,165.36c3.632-.688,7.824-1.232,12.224-1.808,1.568-.208,3.152-.416,4.768-.64C356.08,181.216,351.744,187.248,351.536,187.536Z" fill="#fff"/>
    </g>
  </g>
</svg>
